<svg width="1195" height="342" viewBox="0 0 1195 342" fill="none" xmlns="http://www.w3.org/2000/svg">
<g filter="url(#filter0_f_1_3)">
<path d="M260.908 25.638C204.899 25.025 156.057 84.0942 138.638 113.705C124.16 134.305 106.746 198.215 99.8495 227.596C111.593 212.87 141.519 183.734 167.273 184.999C199.465 186.58 207.364 185.996 243.15 197.053C278.936 208.109 297.679 240.538 349.074 241.343C400.469 242.149 403.698 242.761 442.006 232.011C480.315 221.262 497.197 214.075 561.629 193.872C626.061 173.669 621.315 202.924 652.424 210.524C683.533 218.125 706.147 222.393 794.335 237.654C882.522 252.916 822.472 225.677 862.353 198.973C902.233 172.269 898.389 186.411 972.35 186.886C1046.31 187.36 1041.87 197.587 1078.48 212.274C1115.09 226.96 1086.71 178.653 1050.36 149.663C1014 120.672 978.429 95.3671 936.755 59.0681C895.08 22.769 825.542 35.392 788.317 40.1223C751.092 44.8525 626.695 93.6394 549.379 97.3724C472.062 101.105 330.919 26.4042 260.908 25.638Z" fill="url(#paint0_linear_1_3)" fill-opacity="0.68"/>
</g>
<defs>
<filter id="filter0_f_1_3" x="0.849457" y="-73.3668" width="1193.69" height="414.422" filterUnits="userSpaceOnUse" color-interpolation-filters="sRGB">
<feFlood flood-opacity="0" result="BackgroundImageFix"/>
<feBlend mode="normal" in="SourceGraphic" in2="BackgroundImageFix" result="shape"/>
<feGaussianBlur stdDeviation="49.5" result="effect1_foregroundBlur_1_3"/>
</filter>
<linearGradient id="paint0_linear_1_3" x1="612.054" y1="247.163" x2="615.869" y2="8.95229" gradientUnits="userSpaceOnUse">
<stop stop-color="#40DDE3" stop-opacity="0.07"/>
<stop offset="0.307692" stop-color="#40DDE3"/>
<stop offset="0.432692" stop-color="#DEDEDE"/>
<stop offset="0.519231" stop-color="#40DDE3"/>
<stop offset="0.639423" stop-opacity="0.25"/>
<stop offset="0.793269" stop-color="#45F7FA" stop-opacity="0.31"/>
<stop offset="0.889423" stop-color="#121213"/>
<stop offset="1" stop-color="#737373"/>
</linearGradient>
</defs>
</svg>
