<svg width="625" height="373" viewBox="0 0 625 373" fill="none" xmlns="http://www.w3.org/2000/svg">
<g filter="url(#filter0_d_1_14)">
<path d="M278.171 355.587V356.587H279.171V355.587H278.171ZM278.171 22.0898V21.0898H277.171V22.0898H278.171ZM598.299 22.0898C598.299 25.0354 600.687 27.4232 603.632 27.4232C606.578 27.4232 608.966 25.0354 608.966 22.0898C608.966 19.1443 606.578 16.7565 603.632 16.7565C600.687 16.7565 598.299 19.1443 598.299 22.0898ZM3.60547 355.587V356.587H278.171V355.587V354.587H3.60547V355.587ZM278.171 355.587H279.171V22.0898H278.171H277.171V355.587H278.171ZM278.171 22.0898V23.0898H603.632V22.0898V21.0898H278.171V22.0898Z" fill="#40DDE3"/>
</g>
<defs>
<filter id="filter0_d_1_14" x="-12.3945" y="0.756516" width="637.36" height="371.83" filterUnits="userSpaceOnUse" color-interpolation-filters="sRGB">
<feFlood flood-opacity="0" result="BackgroundImageFix"/>
<feColorMatrix in="SourceAlpha" type="matrix" values="0 0 0 0 0 0 0 0 0 0 0 0 0 0 0 0 0 0 127 0" result="hardAlpha"/>
<feOffset/>
<feGaussianBlur stdDeviation="8"/>
<feComposite in2="hardAlpha" operator="out"/>
<feColorMatrix type="matrix" values="0 0 0 0 0.270588 0 0 0 0 0.968627 0 0 0 0 0.980392 0 0 0 1 0"/>
<feBlend mode="normal" in2="BackgroundImageFix" result="effect1_dropShadow_1_14"/>
<feBlend mode="normal" in="SourceGraphic" in2="effect1_dropShadow_1_14" result="shape"/>
</filter>
</defs>
</svg>
