<svg width="461" height="374" viewBox="0 0 461 374" fill="none" xmlns="http://www.w3.org/2000/svg">
<g filter="url(#filter0_d_1_15)">
<path d="M120.015 19.2476H121.015V18.2476H120.015V19.2476ZM120.015 350.066H119.015V351.066H120.015V350.066ZM438.803 350.066C438.803 353.011 441.191 355.399 444.137 355.399C447.082 355.399 449.47 353.011 449.47 350.066C449.47 347.12 447.082 344.733 444.137 344.733C441.191 344.733 438.803 347.12 438.803 350.066ZM18.2246 19.2476V20.2476H120.015V19.2476V18.2476H18.2246V19.2476ZM120.015 19.2476H119.015V350.066H120.015H121.015V19.2476H120.015ZM120.015 350.066V351.066H444.137V350.066V349.066H120.015V350.066Z" fill="#40DDE3"/>
</g>
<defs>
<filter id="filter0_d_1_15" x="0.224609" y="0.247559" width="467.245" height="373.152" filterUnits="userSpaceOnUse" color-interpolation-filters="sRGB">
<feFlood flood-opacity="0" result="BackgroundImageFix"/>
<feColorMatrix in="SourceAlpha" type="matrix" values="0 0 0 0 0 0 0 0 0 0 0 0 0 0 0 0 0 0 127 0" result="hardAlpha"/>
<feOffset/>
<feGaussianBlur stdDeviation="9"/>
<feComposite in2="hardAlpha" operator="out"/>
<feColorMatrix type="matrix" values="0 0 0 0 0.25098 0 0 0 0 0.866667 0 0 0 0 0.890196 0 0 0 1 0"/>
<feBlend mode="normal" in2="BackgroundImageFix" result="effect1_dropShadow_1_15"/>
<feBlend mode="normal" in="SourceGraphic" in2="effect1_dropShadow_1_15" result="shape"/>
</filter>
</defs>
</svg>
